<?xml version="1.0" encoding="UTF-8"?>
<svg id="Layer_2" data-name="Layer 2" xmlns="http://www.w3.org/2000/svg" viewBox="0 0 76.62 76.62">
  <defs>
    <style>
      .cls-1 {
        fill: #f4f4e2;
      }
    </style>
  </defs>
  <g id="Layer_1-2" data-name="Layer 1">
    <g>
      <path class="cls-1" d="M76.62,38.31c0,21.16-17.15,38.31-38.31,38.31-1.56,0-3.09-.09-4.6-.28l17.01-38.06-12.4.04-4.69,38.01C14.68,74.03,0,57.89,0,38.31,0,17.15,17.15,0,38.31,0c1.56,0,3.09.09,4.6.28l-17.01,38.06,12.4-.04L42.99.29c18.95,2.3,33.63,18.44,33.63,38.02Z"/>
      <path class="cls-1" d="M43.03,0l-.04.29s-.05-.01-.08-.01l.12-.28Z"/>
      <path class="cls-1" d="M33.71,76.34l-.12.28.04-.29s.05.01.08.01Z"/>
    </g>
  </g>
</svg>