<?xml version="1.0" encoding="UTF-8"?>
<svg id="Layer_2" data-name="Layer 2" xmlns="http://www.w3.org/2000/svg" viewBox="0 0 128.32 46.91">
  <defs>
    <style>
      .cls-1 {
        fill: #1e1e1e;
      }

      .cls-2 {
        fill: #beff28;
      }
    </style>
  </defs>
  <g id="Layer_1-2" data-name="Layer 1">
    <g id="Layer_1-2" data-name="Layer 1-2">
      <polygon class="cls-2" points="72.9 .4 62.59 23.47 70.05 23.44 72.9 .4"/>
      <polygon class="cls-2" points="70.06 23.45 67.22 46.5 77.52 23.43 70.06 23.45"/>
      <path class="cls-1" d="M119.2.41h-5.28l-2.8,22.75c-3.75.73-6.57,4.52-6.57,8.33,0,4.97,4.77,5.91,4.77,7.98,0,1.11-1,1.73-2,1.73-1.62,0-2.8-1.21-3.59-2.52l-.9,7.22c1.38.62,2.87,1,4.39,1,4.9,0,8.36-4.18,8.36-8.91s-4.84-5.7-4.84-7.74c0-.9,1-1.52,1.83-1.52,1.48,0,2.66,1.28,3.28,2.52l.86-7.05c-.56-.31-1.14-.57-1.74-.76h1.86c3.9,0,6.7-1.14,8.91-4.42,1.76-2.62,2.59-6.18,2.59-9.33,0-5.77-3.28-9.29-9.12-9.29h0ZM117.88,17.89l1.45-11.71c2.31,0,2.66,2.49,2.66,4.28,0,2.59-.79,7.25-4.11,7.43h0Z"/>
      <path class="cls-1" d="M24.07,23.45l-1,8.15h-2.94l1-8.15h-3.35.01s.93-7.57.93-7.57c2.69.24,5.49-.28,7.43-2.25,1.66-1.69,2.52-4.21,2.52-6.56C28.67,1.9,25.01.41,20.45.41h-5.94l-2.81,22.88h-1.85c-.37.84-.75,1.68-1.08,2.55-.1-.85-.28-1.71-.46-2.55h-2.29l1.44,4.77-.43,3.49h2.19l.43-3.49,2.39-4.61h2.97l-2.83,23.04h6.11l1.14-9.26h2.94l-1.14,9.26h6.11l2.83-23.04h-6.11,0ZM20,5.46h.45c1.35,0,1.97,1.04,1.97,2.28,0,1.59-1.04,3.01-2.73,3.01h-.31l.62-5.28h0Z"/>
      <path class="cls-1" d="M104.34,23.45h5.65s.66-5.53.66-5.53h-5.25l.45-3.52h4.7l.66-5.22h-4.73l.41-3.35h5.25l.69-5.42h-11.4l-2.85,23.15h0l-.64,5.07c-.38,2.9-.35,5.8-.35,8.7-.41-1.93-.73-3.9-1.21-5.8l-2.07-8.08h4.21l-3.39-9.57c2.97-1.24,4.28-3.73,4.28-6.87,0-5.04-3.42-6.6-7.94-6.6h-6.25l-2.83,23.04h.02-.95s-.02,0-.02,0h.02s.66-5.53.66-5.53h-5.25l.45-3.52h4.7l.66-5.22h-4.73l.41-3.35h5.25l.69-5.42h-11.4l-2.83,23.04h7.45l-10.3,23.01,2.84-23.01h-7.46c-1.67,4.08-3.44,8.08-4.78,12.26.13-.93.28-1.83.37-2.76.06-.59.08-1.14.1-1.73l.44-7.77h3.87L72.89.41h-5.97l-2.89,7.15c-1,2.49-1.83,5.01-2.63,7.53.2-1.59.43-3.18.59-4.77.34-3.32.51-6.6.71-9.91h-5.25c-2.01,4.77-4.05,9.53-5.69,14.4.21-1.38.41-2.73.58-4.11.08-.66.13-1.31.17-1.97.27-2.76.55-5.56.79-8.32h-6.05l-.65,23.04h-6s-1.83,14.89-1.83,14.89c-.14,1.18-.35,2.73-1.87,2.73-1,0-1.35-.69-1.35-1.59,0-.38.04-.76.07-1.14l1.79-14.59c4.08-.69,6.68-4.44,7.83-8.28.62-2.14.9-4.39.9-6.6,0-4.46-2.21-8.88-7.22-8.88-4.7,0-7.91,3.8-9.33,7.91-.69,2.07-1,4.28-1,6.46s.35,4.56,1.62,6.42c.85,1.24,2.09,2.16,3.49,2.66h-2.37l-1.9,15.44c-.07.55-.1,1.11-.1,1.66,0,4.28,3.04,6.36,7.08,6.36,2.04,0,3.76-.55,5.35-1.8,1.9-1.48,2.66-3.01,2.94-5.35l2-16.3h4.37l-7.68,23.04h6.56c1.33-4.87,2.74-9.77,3.87-14.68-.11.79-.23,1.62-.3,2.42-.04.38-.04.79-.08,1.18l-.69,11.09h5.01c1.99-4.87,4.05-9.74,5.77-14.68-.89,4.9-1.77,9.77-2.63,14.68h12.63l1.12-2.94h4.11l-.15,2.94h6.32l.05-23.04h3.5c.41-3.18.83-6.36,1.11-9.57.21.9.38,1.76.59,2.66.52,2.31,1.14,4.59,1.69,6.91h.01-3.43s-2.83,23.04-2.83,23.04h5.84c.38-3.21.86-6.39,1.07-9.6.07-1.21.14-2.45.21-3.66.24,1.62.59,3.21.97,4.8l2.04,8.46h5.84l2.83-23.04h-.09,0ZM35.21,11.19c.21-1.42,1.14-5.39,2.97-5.39,1.59,0,1.62,2.45,1.62,3.56,0,1.04-.07,2.07-.21,3.11-.21,1.45-1.07,5.56-2.97,5.56-1.62,0-1.66-2.62-1.66-3.76,0-1.04.07-2.07.24-3.07ZM52.59,23.45h0,0s3.22-8.36,3.22-8.36c.36-.97.72-1.9,1.05-2.87.34-1.07.68-2.14,1.09-3.18-.63,4.8-.88,9.6-1.24,14.4h.01-4.12s0,0,0,0ZM79.55,32.95l-.26,3.01c-.08.9-.12,1.8-.17,2.69h-2.59c.84-2.14,1.58-4.28,2.39-6.42.4-1.07.71-2.18,1.08-3.25-.15,1.31-.34,2.66-.45,3.97h0ZM90.45,11.09h-.41l.69-5.49c1.55,0,2.59.48,2.59,2.21,0,1.59-1.18,3.28-2.87,3.28Z"/>
      <path class="cls-1" d="M6.12,25.34c0-1.57-1.18-2.04-2.55-2.04H1.01l-1.01,8.26h3.07c1.53,0,2.76-1.09,2.76-2.66,0-1.01-.48-1.44-1.45-1.57,1.13-.1,1.73-.88,1.73-1.98h0ZM2.6,29.77c-.06,0-.12,0-.19-.01l.2-1.57c.06,0,.11-.01.17-.01.43,0,.83.19.83.68,0,.58-.47.92-1.01.92h0ZM2.96,26.51s-.1,0-.15-.01l.17-1.41c.07-.01.16-.01.24-.01.41,0,.69.17.69.62,0,.54-.45.82-.95.82h0Z"/>
    </g>
  </g>
</svg>