<?xml version="1.0" encoding="UTF-8"?>
<svg id="Layer_2" data-name="Layer 2" xmlns="http://www.w3.org/2000/svg" viewBox="0 0 843.47 308.34">
  <defs>
    <style>
      .cls-1 {
        fill: #fff;
      }
    </style>
  </defs>
  <g id="Layer_1-2" data-name="Layer 1">
    <g id="Layer_1-2" data-name="Layer 1-2">
      <path class="cls-1" d="M783.52,2.72h-34.74l-18.38,149.56c-24.68,4.79-43.21,29.69-43.21,54.79,0,32.69,31.33,38.83,31.33,52.44,0,7.27-6.58,11.35-13.17,11.35-10.67,0-18.39-7.95-23.62-16.58l-5.9,47.45c9.09,4.08,18.85,6.58,28.84,6.58,32.24,0,54.94-27.48,54.94-58.57s-31.78-37.46-31.78-50.86c0-5.9,6.58-9.99,12.03-9.99,9.76,0,17.48,8.4,21.57,16.58l5.68-46.31c-3.67-2.03-7.5-3.72-11.47-5h12.22c25.65,0,44.04-7.49,58.57-29.06,11.58-17.25,17.03-40.65,17.03-61.31,0-37.91-21.57-61.07-59.95-61.07h0ZM774.9,117.61l9.54-76.97c15.22,0,17.48,16.34,17.48,28.15,0,17.03-5.22,47.68-27.01,48.81h-.01Z"/>
      <path class="cls-1" d="M158.24,154.17l-6.58,53.58h-19.3l6.58-53.58h-22.05.08s6.13-49.73,6.13-49.73c17.71,1.59,36.1-1.81,48.81-14.76,10.9-11.12,16.58-27.7,16.58-43.14,0-34.06-24.07-43.82-54.04-43.82h-39.05l-18.49,150.39h-12.13c-2.44,5.53-4.96,11.07-7.08,16.77-.65-5.61-1.87-11.23-3.01-16.77h-15.06l9.44,31.33-2.85,22.95h14.4l2.85-22.95,15.72-30.27h19.55l-18.62,151.45h40.19l7.49-60.85h19.3l-7.49,60.85h40.19l18.61-151.44h-40.19,0ZM131.5,35.88h2.95c8.85,0,12.94,6.82,12.94,14.98,0,10.45-6.82,19.75-17.94,19.75h-2.05l4.08-34.74h.01Z"/>
      <path class="cls-1" d="M685.9,154.17h37.15s4.32-36.34,4.32-36.34h-34.52l2.95-23.16h30.87l4.32-34.28h-31.11l2.72-22.02h34.52l4.54-35.64h-74.93l-18.71,152.17h.02l-4.22,33.34c-2.5,19.07-2.27,38.15-2.27,57.21-2.72-12.72-4.77-25.65-7.95-38.15l-13.62-53.14h27.69l-22.25-62.89c19.52-8.18,28.15-24.52,28.15-45.18,0-33.14-22.48-43.37-52.22-43.37h-41.1l-18.61,151.44h.11-6.26s-.15.01-.15.01h.15s4.32-36.34,4.32-36.34h-34.52l2.95-23.16h30.87l4.32-34.28h-31.11l2.72-22.02h34.52l4.54-35.64h-74.93l-18.61,151.44h48.96l-67.69,151.28,18.7-151.27h-49.06c-10.98,26.79-22.61,53.13-31.4,80.61.82-6.13,1.85-12.03,2.44-18.16.37-3.86.5-7.49.64-11.35l2.89-51.09h25.46L479.15,2.72h-39.27l-19.01,47c-6.57,16.34-12.04,32.92-17.27,49.5,1.3-10.45,2.83-20.89,3.89-31.33,2.26-21.8,3.34-43.37,4.7-65.16h-34.52c-13.2,31.33-26.63,62.67-37.43,94.68,1.36-9.09,2.68-17.94,3.81-27.02.54-4.32.84-8.63,1.15-12.94,1.8-18.16,3.64-36.55,5.21-54.72h-39.74l-4.29,151.44h-39.43s-12.03,97.87-12.03,97.87c-.91,7.72-2.27,17.94-12.26,17.94-6.58,0-8.85-4.54-8.85-10.45,0-2.5.23-4.99.45-7.49l11.79-95.89c26.84-4.52,43.9-29.2,51.49-54.44,4.08-14.08,5.9-28.84,5.9-43.37,0-29.29-14.53-58.35-47.45-58.35-30.87,0-51.99,24.98-61.31,51.99-4.54,13.62-6.58,28.15-6.58,42.46s2.27,29.97,10.67,42.23c5.61,8.14,13.75,14.22,22.93,17.5h-15.6l-12.48,101.49c-.45,3.63-.69,7.27-.69,10.9,0,28.15,19.99,41.78,46.54,41.78,13.4,0,24.74-3.63,35.19-11.81,12.48-9.76,17.48-19.75,19.3-35.19l13.17-107.18h28.73l-50.51,151.45h43.14c8.77-32.01,18.01-64.25,25.44-96.5-.73,5.22-1.49,10.67-1.99,15.89-.24,2.5-.27,5.22-.52,7.72l-4.55,72.88h32.92c13.08-32.01,26.62-64.03,37.93-96.5-5.84,32.24-11.66,64.25-17.27,96.5h83.05l7.37-19.3h27.02l-1.01,19.3h41.55l.34-151.45h23.03c2.72-20.89,5.44-41.78,7.27-62.89,1.36,5.9,2.5,11.58,3.86,17.48,3.41,15.22,7.49,30.2,11.12,45.4h.09-22.56s-18.61,151.45-18.61,151.45h38.37c2.5-21.11,5.68-42.01,7.04-63.12.45-7.95.91-16.12,1.36-24.07,1.59,10.67,3.86,21.11,6.36,31.56l13.39,55.63h38.37l18.61-151.44h-.62.04ZM231.48,73.57c1.36-9.31,7.49-35.42,19.52-35.42,10.45,0,10.67,16.12,10.67,23.38,0,6.81-.45,13.62-1.36,20.44-1.36,9.54-7.04,36.55-19.52,36.55-10.67,0-10.9-17.25-10.9-24.74,0-6.81.45-13.62,1.59-20.21ZM345.67,154.17h-.04.04s21.14-54.95,21.14-54.95c2.38-6.35,4.73-12.48,6.88-18.85,2.24-7.04,4.47-14.08,7.13-20.89-4.15,31.56-5.8,63.12-8.14,94.68h.07-27.1s.01.01.01.01ZM522.9,216.61l-1.73,19.75c-.52,5.9-.81,11.81-1.1,17.71h-17.03c5.55-14.08,10.41-28.15,15.73-42.23,2.66-7.04,4.66-14.31,7.09-21.35-.98,8.63-2.22,17.48-2.97,26.11h0ZM594.55,72.88h-2.72l4.54-36.1c10.21,0,17.03,3.18,17.03,14.53,0,10.45-7.72,21.57-18.85,21.57Z"/>
      <path class="cls-1" d="M40.2,166.54c0-10.33-7.73-13.42-16.77-13.42H6.67L0,207.39h20.19c10.09,0,18.15-7.16,18.15-17.5,0-6.67-3.18-9.44-9.52-10.33,7.41-.65,11.4-5.78,11.4-13.02h-.01ZM17.09,195.66c-.41,0-.81,0-1.22-.08l1.3-10.33c.41,0,.73-.08,1.14-.08,2.85,0,5.46,1.22,5.46,4.47,0,3.82-3.09,6.03-6.67,6.03h0ZM19.45,174.26c-.33,0-.65,0-.97-.08l1.14-9.28c.49-.08,1.06-.08,1.55-.08,2.69,0,4.56,1.14,4.56,4.07,0,3.58-2.93,5.37-6.27,5.37h-.01Z"/>
    </g>
  </g>
</svg>